<svg width="161" height="161" viewBox="0 0 161 161" fill="none" xmlns="http://www.w3.org/2000/svg">
  <g clip-path="url(#clip0_54_12)">
    <path d="M76 102C78.3394 121.629 80 141.283 80 161" stroke="currentColor" stroke-opacity="0.9"
      stroke-width="6" stroke-linecap="round" stroke-linejoin="round" />
    <path d="M76.2737 100.625C89.7358 89.6559 106.738 75.3841 111.681 58.083" stroke="currentColor"
      stroke-opacity="0.9" stroke-width="6" stroke-linecap="round" stroke-linejoin="round" />
    <path d="M112.308 55.8709C112.551 48.8771 110.112 42.0748 109.148 35.3262" stroke="currentColor"
      stroke-opacity="0.9" stroke-width="6" stroke-linecap="round" stroke-linejoin="round" />
    <path d="M114.204 55.8697C118.434 53.6737 122.67 51.0465 127.162 49.5488" stroke="currentColor"
      stroke-opacity="0.9" stroke-width="6" stroke-linecap="round" stroke-linejoin="round" />
    <path d="M76.277 101.068C71.4373 95.1017 67.585 88.161 64.5819 81.1562" stroke="currentColor"
      stroke-opacity="0.9" stroke-width="6" stroke-linecap="round" stroke-linejoin="round" />
    <path d="M64.943 81.0304C69.7126 73.1579 74.7736 65.8312 77.7501 57.1235" stroke="currentColor"
      stroke-opacity="0.9" stroke-width="6" stroke-linecap="round" stroke-linejoin="round" />
    <path d="M63.2344 81.0305C47.5819 76.3989 40.3756 65.9625 33.3505 53.708" stroke="currentColor"
      stroke-opacity="0.9" stroke-width="6" stroke-linecap="round" stroke-linejoin="round" />
    <path d="M45.6177 68.829C51.8472 60.2131 54.1515 49.3114 54.1515 38.8027" stroke="currentColor"
      stroke-opacity="0.9" stroke-width="6" stroke-linecap="round" stroke-linejoin="round" />
    <path d="M33.3506 54.0197C33.3412 50.8886 34.2829 48.0607 35.2469 45.1699" stroke="currentColor"
      stroke-opacity="0.9" stroke-width="6" stroke-linecap="round" stroke-linejoin="round" />
    <path d="M117.042 30.1268C116.337 13.3851 140.213 21.4597 119.953 30.655" stroke="currentColor"
      stroke-opacity="0.9" stroke-width="6" stroke-linecap="round" stroke-linejoin="round" />
    <path d="M103.461 30.5851C92.8225 22.0904 112.829 5.49637 107.254 30.5851" stroke="currentColor"
      stroke-opacity="0.9" stroke-width="6" stroke-linecap="round" stroke-linejoin="round" />
    <path d="M135.7 44.8077C151.947 42.1556 148.52 48.6005 134.435 48.6005" stroke="currentColor"
      stroke-opacity="0.9" stroke-width="6" stroke-linecap="round" stroke-linejoin="round" />
    <path d="M126.53 61.2441C138.52 62.3071 125.857 69.3194 123.369 60.6113" stroke="currentColor"
      stroke-opacity="0.9" stroke-width="6" stroke-linecap="round" stroke-linejoin="round" />
    <path d="M102.178 41.0911C86.7049 35.4014 86.6623 55.3996 102.178 42.9877" stroke="currentColor"
      stroke-opacity="0.9" stroke-width="6" stroke-linecap="round" stroke-linejoin="round" />
    <path d="M119.144 38.4706C126.796 32.4451 132.916 43.3014 117.879 41.6314" stroke="currentColor"
      stroke-opacity="0.9" stroke-width="6" stroke-linecap="round" stroke-linejoin="round" />
    <path d="M86.3942 57.4504C98.4918 49.7711 104.623 62.9642 84.8136 59.6633" stroke="currentColor"
      stroke-opacity="0.9" stroke-width="6" stroke-linecap="round" stroke-linejoin="round" />
    <path d="M77.5424 50.1811C79.2124 36.0386 86.0601 33.5719 78.8067 50.4971" stroke="currentColor"
      stroke-opacity="0.9" stroke-width="6" stroke-linecap="round" stroke-linejoin="round" />
    <path d="M66.7969 54.9225C58.3005 53.8655 58.7453 70.5966 70.2733 56.1867" stroke="currentColor"
      stroke-opacity="0.9" stroke-width="6" stroke-linecap="round" stroke-linejoin="round" />
    <path d="M83.6608 66.5156C92.7952 70.2146 79.9128 78.2541 78.6038 67.7803" stroke="currentColor"
      stroke-opacity="0.9" stroke-width="6" stroke-linecap="round" stroke-linejoin="round" />
    <path d="M62.0526 30.2695C77.3283 12.9984 76.0604 42.1725 60.4724 34.3781" stroke="currentColor"
      stroke-opacity="0.9" stroke-width="6" stroke-linecap="round" stroke-linejoin="round" />
    <path d="M52.5842 32.6627C36.1969 14.7204 33.6679 37.0718 52.5842 30.7663" stroke="currentColor"
      stroke-opacity="0.9" stroke-width="6" stroke-linecap="round" stroke-linejoin="round" />
    <path d="M46.5652 38.8033C35.3793 34.9679 40.2512 47.0145 47.5139 39.751" stroke="currentColor"
      stroke-opacity="0.9" stroke-width="6" stroke-linecap="round" stroke-linejoin="round" />
    <path d="M23.177 56.5029C6.67518 67.3781 22.0431 70.3912 24.7574 56.8189" stroke="currentColor"
      stroke-opacity="0.9" stroke-width="6" stroke-linecap="round" stroke-linejoin="round" />
    <path d="M23.182 47.0203C5.17656 46.6053 17.9267 29.3068 27.6064 45.4404" stroke="currentColor"
      stroke-opacity="0.9" stroke-width="6" stroke-linecap="round" stroke-linejoin="round" />
    <path d="M57.3108 47.3368C63.3072 35.2844 73.7537 48.2847 58.2595 48.2847" stroke="currentColor"
      stroke-opacity="0.9" stroke-width="6" stroke-linecap="round" stroke-linejoin="round" />
  </g>
  <defs>
    <clipPath id="clip0_54_12">
      <rect width="161" height="161" fill="white" />
    </clipPath>
  </defs>
</svg>