<svg width="48" height="48" viewBox="0 0 48 48" fill="none" xmlns="http://www.w3.org/2000/svg">
<path d="M24 45C35.598 45 45 35.598 45 24C45 12.402 35.598 3 24 3C12.402 3 3 12.402 3 24C3 35.598 12.402 45 24 45Z" stroke="white" stroke-width="4" stroke-miterlimit="10"/>
<path d="M16.24 4.47998C19.9386 8.65244 23.0845 13.2839 25.6 18.26C26.7916 20.5695 27.8468 22.9469 28.76 25.38C30.9238 31.0368 32.3684 36.943 33.06 42.96" stroke="white" stroke-width="4" stroke-miterlimit="10"/>
<path d="M39.34 9.64014C35.4683 13.5125 30.7712 16.4593 25.6 18.2601C18.436 21.0371 10.7771 22.3102 3.09998 22.0001" stroke="white" stroke-width="4" stroke-miterlimit="10"/>
<path d="M44.84 26.42C39.6708 24.7761 34.1785 24.4191 28.84 25.38C24.8133 26.1428 21.0239 27.8467 17.7811 30.3527C14.5382 32.8587 11.9337 36.0958 10.18 39.8" stroke="white" stroke-width="4" stroke-miterlimit="10"/>
</svg>
