<svg width="48" height="48" viewBox="0 0 48 48" fill="none" xmlns="http://www.w3.org/2000/svg">
<path d="M37.3426 5.25328C37.1256 4.72966 36.7068 4.32904 36.1918 4.15254L36.188 4.15128L36.1844 4.15002L36.1768 4.14748L36.161 4.14228L36.1272 4.13166C36.1036 4.12446 36.078 4.11712 36.0504 4.10974C35.9952 4.09498 35.932 4.08014 35.861 4.06638C35.7186 4.03882 35.5456 4.01574 35.3416 4.00558C34.932 3.98518 34.4074 4.01716 33.7634 4.16108C32.6894 4.40106 31.2952 4.94928 29.5448 6.07262C29.4304 6.14604 29.3144 6.22192 29.197 6.30032C29.0794 6.27122 28.9618 6.2431 28.844 6.216C25.6522 5.48166 22.3484 5.48166 19.1565 6.216C19.0387 6.24312 18.921 6.27122 18.8035 6.30034C18.686 6.22192 18.57 6.14604 18.4555 6.07262C16.7033 4.9487 15.3058 4.40058 14.2291 4.16078C13.5836 4.01704 13.0578 3.98524 12.648 4.00556C12.4437 4.01568 12.2707 4.03862 12.1286 4.06598C12.0576 4.07964 11.9946 4.09434 11.9397 4.10894C11.9122 4.11624 11.8867 4.12352 11.8633 4.13062L11.8296 4.14112L11.814 4.14622L11.8064 4.14874L11.8027 4.14998L11.799 4.15122C11.2796 4.32794 10.8575 4.73246 10.641 5.26122C9.83433 7.2308 9.62021 9.40268 10.0087 11.4861C10.0276 11.5873 10.0479 11.6884 10.0696 11.7892C9.98633 11.9075 9.90541 12.0274 9.82687 12.1488C8.61543 14.0218 7.97107 16.2558 8.00127 18.5499C8.00417 23.463 9.43931 26.8278 11.8664 28.993C13.2403 30.2186 14.8349 30.9688 16.4375 31.4416C16.6208 31.4958 16.8043 31.5462 16.9876 31.5934C16.9609 31.6864 16.9359 31.7802 16.9128 31.8746C16.8158 32.2714 16.7514 32.6788 16.7217 33.0922C16.719 33.1296 16.7173 33.167 16.7166 33.2044L16.6487 36.842L16.6483 36.8814C16.6483 36.8928 16.6483 36.9042 16.6483 36.9154C16.5252 36.946 16.4001 36.9686 16.2736 36.9832C15.884 37.0282 15.4893 36.9954 15.1122 36.8868C14.735 36.7782 14.3825 36.5958 14.075 36.3498C13.7675 36.1038 13.5111 35.7988 13.3206 35.4522L13.301 35.4174C12.7767 34.507 12.0525 33.7278 11.1828 33.139C10.3131 32.55 9.32081 32.1672 8.28095 32.0198C7.18731 31.8648 6.17507 32.6256 6.02005 33.7194C5.86503 34.813 6.62593 35.8252 7.71957 35.9802C8.15633 36.0422 8.57377 36.203 8.94025 36.4512C9.30243 36.6964 9.60555 37.0206 9.82681 37.4C10.2692 38.1984 10.8633 38.9028 11.576 39.473C12.2951 40.0484 13.1206 40.4758 14.0054 40.7306C14.867 40.9786 15.7678 41.0582 16.659 40.965C16.6608 41.4448 16.6621 41.813 16.6621 42C16.6621 43.1046 17.5104 44 18.5569 44H29.5116C30.558 44 31.4064 43.1046 31.4064 42V34.419C31.458 33.5604 31.37 32.6998 31.1476 31.8746C31.117 31.761 31.0838 31.648 31.0482 31.5358C31.1676 31.506 31.287 31.4746 31.4064 31.4416C33.0554 30.9874 34.7026 30.2448 36.1176 28.9966C38.5582 26.8434 39.9964 23.4758 39.9992 18.5499C40.0294 16.2558 39.385 14.0218 38.1736 12.1488C38.095 12.0272 38.014 11.9071 37.9304 11.7886C37.952 11.688 37.9722 11.5872 37.991 11.4861C38.3786 9.39868 38.159 7.22284 37.3426 5.25328Z" fill="white"/>
</svg>
