<svg width="48" height="48" viewBox="0 0 48 48" fill="none" xmlns="http://www.w3.org/2000/svg">
<path d="M44.925 26.7121L42.57 19.6501L37.914 5.64012C37.8589 5.48149 37.7554 5.34411 37.6182 5.24726C37.481 5.15041 37.3169 5.09895 37.149 5.10012C36.9816 5.09958 36.8182 5.15133 36.6816 5.24813C36.545 5.34494 36.442 5.48197 36.387 5.64012L31.731 19.6411H16.266L11.61 5.63712C11.5549 5.47929 11.4518 5.34265 11.3152 5.24635C11.1785 5.15005 11.0152 5.09892 10.848 5.10012C10.6805 5.09913 10.5169 5.1507 10.3802 5.24757C10.2435 5.34444 10.1406 5.48173 10.086 5.64012L5.43601 19.6411L3.08401 26.7121C2.97992 27.0272 2.98002 27.3674 3.08429 27.6824C3.18857 27.9974 3.39148 28.2704 3.66301 28.4611L24.003 42.8971L44.337 28.4611C44.6098 28.2713 44.8142 27.9988 44.9201 27.6838C45.026 27.3688 45.0277 27.0281 44.925 26.7121Z" fill="white"/>
</svg>
