<svg width="64" height="64" viewBox="0 0 64 64" fill="none" xmlns="http://www.w3.org/2000/svg">
<g clip-path="url(#clip0_40_36)">
<path d="M46 48C47.1046 48 48 47.1046 48 46C48 44.8954 47.1046 44 46 44C44.8954 44 44 44.8954 44 46C44 47.1046 44.8954 48 46 48Z" fill="white"/>
<path d="M40 44H16V48H40V44Z" fill="white"/>
<path d="M46 20C47.1046 20 48 19.1046 48 18C48 16.8954 47.1046 16 46 16C44.8954 16 44 16.8954 44 18C44 19.1046 44.8954 20 46 20Z" fill="white"/>
<path d="M40 16H16V20H40V16Z" fill="white"/>
<path d="M52 28C53.0609 28 54.0783 27.5786 54.8284 26.8284C55.5786 26.0783 56 25.0609 56 24V12C56 10.9391 55.5786 9.92172 54.8284 9.17157C54.0783 8.42143 53.0609 8 52 8H12C10.9391 8 9.92172 8.42143 9.17157 9.17157C8.42143 9.92172 8 10.9391 8 12V24C8 25.0609 8.42143 26.0783 9.17157 26.8284C9.92172 27.5786 10.9391 28 12 28H16V36H12C10.9391 36 9.92172 36.4214 9.17157 37.1716C8.42143 37.9217 8 38.9391 8 40V52C8 53.0609 8.42143 54.0783 9.17157 54.8284C9.92172 55.5786 10.9391 56 12 56H52C53.0609 56 54.0783 55.5786 54.8284 54.8284C55.5786 54.0783 56 53.0609 56 52V40C56 38.9391 55.5786 37.9217 54.8284 37.1716C54.0783 36.4214 53.0609 36 52 36H48V28H52ZM12 12H52V24H12V12ZM52 52H12V40H52V52ZM44 36H20V28H44V36Z" fill="white"/>
</g>
<defs>
<clipPath id="clip0_40_36">
<rect width="64" height="64" fill="white"/>
</clipPath>
</defs>
</svg>
