<svg width="31" height="31" viewBox="0 0 31 31" fill="none" xmlns="http://www.w3.org/2000/svg">
  <path d="M12.917 6.45817H10.592C9.14516 6.45817 8.42122 6.45817 7.86862 6.73974C7.38252 6.9874 6.98761 7.38232 6.73994 7.86841C6.45837 8.42101 6.45837 9.14495 6.45837 10.5918V20.4084C6.45837 21.8552 6.45837 22.5783 6.73994 23.1309C6.98761 23.6169 7.38252 24.0126 7.86862 24.2602C8.42067 24.5415 9.14374 24.5415 10.5877 24.5415H20.4124C21.8563 24.5415 22.5784 24.5415 23.1304 24.2602C23.6165 24.0126 24.0128 23.6165 24.2604 23.1305C24.5417 22.5784 24.5417 21.8561 24.5417 20.4122V18.0832M25.8334 11.6248V5.1665M25.8334 5.1665H19.375M25.8334 5.1665L16.7917 14.2082"
    stroke="white" stroke-width="4" stroke-linecap="round" stroke-linejoin="round" />
</svg>