<svg width="45" height="45" viewBox="0 0 45 45" fill="none" xmlns="http://www.w3.org/2000/svg">
<path d="M43.125 7.5C43.125 4.39341 40.6067 1.875 37.5 1.875H30C28.9644 1.875 28.125 2.71447 28.125 3.75C28.125 4.78552 28.9644 5.625 30 5.625H37.5C38.5356 5.625 39.375 6.46447 39.375 7.5V15C39.375 16.0355 40.2144 16.875 41.25 16.875C42.2856 16.875 43.125 16.0355 43.125 15V7.5Z" fill="#262626"/>
<path d="M43.125 30C43.125 28.9644 42.2856 28.125 41.25 28.125C40.2144 28.125 39.375 28.9644 39.375 30V37.5C39.375 38.5356 38.5356 39.375 37.5 39.375H30C28.9644 39.375 28.125 40.2144 28.125 41.25C28.125 42.2856 28.9644 43.125 30 43.125H37.5C40.6067 43.125 43.125 40.6067 43.125 37.5V30Z" fill="#262626"/>
<path d="M7.5 39.375H15C16.0355 39.375 16.875 40.2144 16.875 41.25C16.875 42.2856 16.0355 43.125 15 43.125H7.5C4.39341 43.125 1.875 40.6067 1.875 37.5V30C1.875 28.9644 2.71448 28.125 3.75 28.125C4.78553 28.125 5.625 28.9644 5.625 30V37.5C5.625 38.5356 6.46448 39.375 7.5 39.375Z" fill="#262626"/>
<path d="M1.875 15C1.875 16.0355 2.71448 16.875 3.75 16.875C4.78553 16.875 5.625 16.0355 5.625 15V7.5C5.625 6.46447 6.46448 5.625 7.5 5.625H15C16.0355 5.625 16.875 4.78552 16.875 3.75C16.875 2.71447 16.0355 1.875 15 1.875H7.5C4.39341 1.875 1.875 4.39341 1.875 7.5V15Z" fill="#262626"/>
</svg>
