<svg width="64" height="64" viewBox="0 0 64 64" fill="none" xmlns="http://www.w3.org/2000/svg">
<g clip-path="url(#clip0_49_82)">
<path d="M5.33334 25.7439L12.8347 33.2693L29.72 16.3359L22.216 8.80794L5.33068 25.7413L5.33334 25.7439ZM17.176 47.4186L22.8027 41.7733C23.0487 41.5259 23.3413 41.3296 23.6635 41.1957C23.9856 41.0617 24.3311 40.9928 24.68 40.9928C25.0289 40.9928 25.3744 41.0617 25.6966 41.1957C26.0187 41.3296 26.3113 41.5259 26.5573 41.7733C27.0548 42.273 27.3341 42.9495 27.3341 43.6546C27.3341 44.3598 27.0548 45.0362 26.5573 45.5359L20.9307 51.1813C21.4282 51.681 21.7075 52.3575 21.7075 53.0626C21.7075 53.7678 21.4282 54.4442 20.9307 54.9439L17.1733 58.7066C16.9273 58.9536 16.635 59.1495 16.313 59.2832C15.9911 59.417 15.6459 59.4858 15.2973 59.4858C14.9487 59.4858 14.6036 59.417 14.2817 59.2832C13.9597 59.1495 13.6674 58.9536 13.4213 58.7066L9.66934 54.9466C9.17105 54.4468 8.89124 53.7697 8.89124 53.0639C8.89124 52.3581 9.17105 51.6811 9.66934 51.1813L13.4213 47.4186C13.6674 47.1716 13.9597 46.9757 14.2817 46.842C14.6036 46.7083 14.9487 46.6394 15.2973 46.6394C15.6459 46.6394 15.9911 46.7083 16.313 46.842C16.635 46.9757 16.93 47.1716 17.176 47.4186ZM41.5653 30.4853L58.448 13.5519L54.696 9.78661L37.8133 26.7199C35.7413 24.6399 35.3813 21.6346 37.008 19.9999L51.7493 5.21594C53.376 3.58394 56.376 3.94394 58.448 6.02394L62.2 9.78394C64.2747 11.8639 64.6347 14.8746 63.0053 16.5039L48.264 31.2906C46.6373 32.9226 43.6373 32.5626 41.5653 30.4826V30.4853ZM39.1013 40.7946L25.968 27.6266L24.0907 29.5093L37.224 42.6799L39.1013 40.7946ZM42.8533 44.5599L40.976 46.4399L45.6667 51.1439C46.184 51.6639 47.0267 51.6639 47.5413 51.1439C47.7897 50.8941 47.9291 50.5562 47.9291 50.2039C47.9291 49.8517 47.7897 49.5138 47.5413 49.2639L42.8533 44.5599ZM5.49334 18.0533C5.13812 17.3083 5.02202 16.4718 5.16094 15.6583C5.29987 14.8447 5.68703 14.0941 6.26935 13.5093L10.0213 9.74928C10.6024 9.16551 11.3505 8.77675 12.1622 8.63677C12.9739 8.49679 13.809 8.61252 14.552 8.96794L18.464 5.04528C18.9561 4.55135 19.5408 4.15943 20.1846 3.89201C20.8285 3.6246 21.5188 3.48694 22.216 3.48694C22.9132 3.48694 23.6035 3.6246 24.2474 3.89201C24.8912 4.15943 25.476 4.55135 25.968 5.04528L33.472 12.5733C34.467 13.5728 35.0256 14.9256 35.0256 16.3359C35.0256 17.7462 34.467 19.0991 33.472 20.0986L29.72 23.8613L51.2933 45.4986C52.5375 46.748 53.2359 48.4394 53.2359 50.2026C53.2359 51.9658 52.5375 53.6572 51.2933 54.9066C50.6784 55.524 49.9476 56.0138 49.1429 56.3481C48.3382 56.6824 47.4754 56.8544 46.604 56.8544C45.7326 56.8544 44.8698 56.6824 44.0651 56.3481C43.2604 56.0138 42.5296 55.524 41.9147 54.9066L20.3413 33.2693L16.5867 37.0319C14.5147 39.1119 11.1547 39.1119 9.08268 37.0319L1.57868 29.5066C0.582904 28.507 0.0238037 27.1536 0.0238037 25.7426C0.0238037 24.3317 0.582904 22.9782 1.57868 21.9786L5.49068 18.0586L5.49334 18.0533Z" fill="white"/>
</g>
<defs>
<clipPath id="clip0_49_82">
<rect width="64" height="64" fill="white"/>
</clipPath>
</defs>
</svg>
